<mxfile host="65bd71144e">
    <diagram id="eM8bZLvH2qa-XqItuuW2" name="Страница 1">
        <mxGraphModel dx="941" dy="526" grid="1" gridSize="10" guides="1" tooltips="1" connect="1" arrows="1" fold="1" page="1" pageScale="1" pageWidth="827" pageHeight="1169" math="0" shadow="0">
            <root>
                <mxCell id="0"/>
                <mxCell id="1" parent="0"/>
                <mxCell id="4" value="" style="edgeStyle=none;html=1;" edge="1" parent="1" source="2" target="3">
                    <mxGeometry relative="1" as="geometry"/>
                </mxCell>
                <mxCell id="2" value="start" style="strokeWidth=2;html=1;shape=mxgraph.flowchart.start_1;whiteSpace=wrap;" vertex="1" parent="1">
                    <mxGeometry x="290" y="40" width="100" height="60" as="geometry"/>
                </mxCell>
                <mxCell id="6" value="" style="edgeStyle=none;html=1;" edge="1" parent="1" source="3" target="5">
                    <mxGeometry relative="1" as="geometry"/>
                </mxCell>
                <mxCell id="3" value="string[] input;&lt;br&gt;string[] output;&lt;br&gt;i = 0;&lt;br&gt;j = 0;&lt;br&gt;size = words.Length;&amp;nbsp;" style="whiteSpace=wrap;html=1;strokeWidth=2;" vertex="1" parent="1">
                    <mxGeometry x="245" y="130" width="185" height="90" as="geometry"/>
                </mxCell>
                <mxCell id="8" value="" style="edgeStyle=none;html=1;" edge="1" parent="1" source="5">
                    <mxGeometry relative="1" as="geometry">
                        <mxPoint x="439" y="290" as="targetPoint"/>
                    </mxGeometry>
                </mxCell>
                <mxCell id="13" value="NO" style="edgeLabel;html=1;align=center;verticalAlign=middle;resizable=0;points=[];" vertex="1" connectable="0" parent="8">
                    <mxGeometry x="-0.3" y="-1" relative="1" as="geometry">
                        <mxPoint as="offset"/>
                    </mxGeometry>
                </mxCell>
                <mxCell id="15" value="" style="edgeStyle=none;html=1;" edge="1" parent="1" source="5" target="14">
                    <mxGeometry relative="1" as="geometry"/>
                </mxCell>
                <mxCell id="16" value="YES" style="edgeLabel;html=1;align=center;verticalAlign=middle;resizable=0;points=[];" vertex="1" connectable="0" parent="15">
                    <mxGeometry x="-0.08" y="-1" relative="1" as="geometry">
                        <mxPoint as="offset"/>
                    </mxGeometry>
                </mxCell>
                <mxCell id="5" value="i &amp;lt; size" style="rhombus;whiteSpace=wrap;html=1;strokeWidth=2;" vertex="1" parent="1">
                    <mxGeometry x="299" y="250" width="80" height="80" as="geometry"/>
                </mxCell>
                <mxCell id="10" value="" style="edgeStyle=none;html=1;" edge="1" parent="1">
                    <mxGeometry relative="1" as="geometry">
                        <mxPoint x="499" y="320" as="sourcePoint"/>
                        <mxPoint x="499" y="390" as="targetPoint"/>
                    </mxGeometry>
                </mxCell>
                <mxCell id="11" value="outrut [j]" style="strokeWidth=2;html=1;shape=mxgraph.flowchart.document2;whiteSpace=wrap;size=0.25;" vertex="1" parent="1">
                    <mxGeometry x="439" y="270" width="100" height="60" as="geometry"/>
                </mxCell>
                <mxCell id="12" value="end" style="strokeWidth=2;html=1;shape=mxgraph.flowchart.start_1;whiteSpace=wrap;" vertex="1" parent="1">
                    <mxGeometry x="449" y="390" width="100" height="60" as="geometry"/>
                </mxCell>
                <mxCell id="18" value="YES" style="edgeStyle=none;html=1;" edge="1" parent="1" source="14" target="17">
                    <mxGeometry relative="1" as="geometry"/>
                </mxCell>
                <mxCell id="22" value="" style="edgeStyle=none;html=1;" edge="1" parent="1" source="14" target="21">
                    <mxGeometry relative="1" as="geometry"/>
                </mxCell>
                <mxCell id="23" value="NO" style="edgeLabel;html=1;align=center;verticalAlign=middle;resizable=0;points=[];" vertex="1" connectable="0" parent="22">
                    <mxGeometry x="-0.06" y="2" relative="1" as="geometry">
                        <mxPoint as="offset"/>
                    </mxGeometry>
                </mxCell>
                <mxCell id="14" value="size &amp;lt;= 3" style="rhombus;whiteSpace=wrap;html=1;strokeWidth=2;" vertex="1" parent="1">
                    <mxGeometry x="299" y="380" width="80" height="80" as="geometry"/>
                </mxCell>
                <mxCell id="20" value="" style="edgeStyle=none;html=1;" edge="1" parent="1" source="17" target="19">
                    <mxGeometry relative="1" as="geometry"/>
                </mxCell>
                <mxCell id="17" value="output [j] = input [i]" style="whiteSpace=wrap;html=1;strokeWidth=2;" vertex="1" parent="1">
                    <mxGeometry x="279" y="500" width="120" height="60" as="geometry"/>
                </mxCell>
                <mxCell id="24" value="" style="edgeStyle=none;html=1;" edge="1" parent="1" source="19" target="21">
                    <mxGeometry relative="1" as="geometry"/>
                </mxCell>
                <mxCell id="19" value="j++" style="whiteSpace=wrap;html=1;strokeWidth=2;" vertex="1" parent="1">
                    <mxGeometry x="79" y="500" width="120" height="60" as="geometry"/>
                </mxCell>
                <mxCell id="25" style="edgeStyle=none;html=1;entryX=0;entryY=0.5;entryDx=0;entryDy=0;" edge="1" parent="1" source="21" target="5">
                    <mxGeometry relative="1" as="geometry">
                        <Array as="points">
                            <mxPoint x="139" y="290"/>
                        </Array>
                    </mxGeometry>
                </mxCell>
                <mxCell id="21" value="i++" style="whiteSpace=wrap;html=1;strokeWidth=2;" vertex="1" parent="1">
                    <mxGeometry x="79" y="390" width="120" height="60" as="geometry"/>
                </mxCell>
            </root>
        </mxGraphModel>
    </diagram>
</mxfile>